<svg width="12" height="11" viewBox="0 0 12 11" fill="none" xmlns="http://www.w3.org/2000/svg">
<path d="M5.62169 9.17834L5.62059 9.17739C4.05996 7.82777 2.82719 6.75966 1.97555 5.76668C1.13124 4.78225 0.75 3.97039 0.75 3.14714C0.75 1.83208 1.83229 0.75 3.3 0.75C4.12988 0.75 4.92854 1.12202 5.44057 1.69545L6 2.32197L6.55943 1.69545C7.07146 1.12202 7.87012 0.75 8.7 0.75C10.1677 0.75 11.25 1.83208 11.25 3.14714C11.25 3.9704 10.8688 4.78229 10.0243 5.76758C9.17262 6.76128 7.94005 7.8306 6.37963 9.18292C6.37936 9.18316 6.37908 9.1834 6.37881 9.18364L6.00187 9.50841L5.62169 9.17834Z" fill="#252525" stroke="#252525" stroke-width="1.5"/>
</svg>
