<svg width="16" height="14" viewBox="0 0 16 14" fill="none" xmlns="http://www.w3.org/2000/svg">
<path d="M7.33169 12.4266L7.33059 12.4256C5.25496 10.6306 3.59469 9.19297 2.4443 7.85165C1.30124 6.5189 0.75 5.37992 0.75 4.19618C0.75 2.29366 2.31629 0.75 4.4 0.75C5.57788 0.75 6.71054 1.27651 7.44057 2.09408L8 2.7206L8.55943 2.09408C9.28946 1.27651 10.4221 0.75 11.6 0.75C13.6837 0.75 15.25 2.29366 15.25 4.19618C15.25 5.37994 14.6988 6.51894 13.5555 7.8528C12.4051 9.19508 10.745 10.6344 8.66955 12.4331C8.6693 12.4333 8.66905 12.4336 8.66881 12.4338L8.00187 13.0084L7.33169 12.4266Z" stroke="#252525" stroke-opacity="0.9" stroke-width="1.5"/>
</svg>
