<svg width="21" height="24" viewBox="0 0 21 24" fill="none" xmlns="http://www.w3.org/2000/svg">
<path d="M2.4 24C1.74 24 1.175 23.765 0.705 23.295C0.235 22.825 0 22.26 0 21.6V2.4C0 1.74 0.235 1.175 0.705 0.705C1.175 0.235 1.74 0 2.4 0H12L19.2 7.2V12.42C18.82 12.28 18.43 12.175 18.03 12.105C17.63 12.035 17.22 12 16.8 12V8.4H10.8V2.4H2.4V21.6H10.02C10.18 22.06 10.38 22.49 10.62 22.89C10.86 23.29 11.14 23.66 11.46 24H2.4ZM14.28 23.4L12.6 21.72L15.12 19.2L12.6 16.68L14.28 15L16.8 17.52L19.32 15L21 16.68L18.51 19.2L21 21.72L19.32 23.4L16.8 20.91L14.28 23.4Z" fill="#252525"/>
</svg>
