<svg width="28" height="28" viewBox="0 0 28 28" fill="none" xmlns="http://www.w3.org/2000/svg">
<mask id="path-1-inside-1_1524_1823" fill="white">
<path fill-rule="evenodd" clip-rule="evenodd" d="M15.4 0H12.6V12.6H0V15.4H12.6V28H15.4V15.4H28V12.6H15.4V0Z"/>
</mask>
<path d="M12.6 0V-2H10.6V0H12.6ZM15.4 0H17.4V-2H15.4V0ZM12.6 12.6V14.6H14.6V12.6H12.6ZM0 12.6V10.6H-2V12.6H0ZM0 15.4H-2V17.4H0V15.4ZM12.6 15.4H14.6V13.4H12.6V15.4ZM12.6 28H10.6V30H12.6V28ZM15.4 28V30H17.4V28H15.4ZM15.4 15.4V13.4H13.4V15.4H15.4ZM28 15.4V17.4H30V15.4H28ZM28 12.6H30V10.6H28V12.6ZM15.4 12.6H13.4V14.6H15.4V12.6ZM12.6 2H15.4V-2H12.6V2ZM14.6 12.6V0H10.6V12.6H14.6ZM0 14.6H12.6V10.6H0V14.6ZM2 15.4V12.6H-2V15.4H2ZM12.6 13.4H0V17.4H12.6V13.4ZM14.6 28V15.4H10.6V28H14.6ZM15.4 26H12.6V30H15.4V26ZM13.4 15.4V28H17.4V15.4H13.4ZM28 13.4H15.4V17.4H28V13.4ZM26 12.6V15.4H30V12.6H26ZM15.4 14.6H28V10.6H15.4V14.6ZM13.4 0V12.6H17.4V0H13.4Z" fill="#252525" mask="url(#path-1-inside-1_1524_1823)"/>
</svg>
