<svg width="18" height="16" viewBox="0 0 18 16" fill="none" xmlns="http://www.w3.org/2000/svg">
<path d="M8.66072 0C10.2266 0 11.6749 0.304757 13.0056 0.914272C14.3363 1.52379 15.3883 2.35261 16.1615 3.40072C16.9348 4.44879 17.3214 5.59204 17.3214 6.83043C17.3214 8.06879 16.9348 9.21365 16.1615 10.265C15.3883 11.3163 14.3379 12.1468 13.0104 12.7563C11.6829 13.3658 10.233 13.6705 8.66072 13.6705C8.16454 13.6705 7.65222 13.635 7.12382 13.5641C4.82975 15.1572 3.60864 15.9635 3.46043 15.9828C3.38954 16.0086 3.32186 16.0054 3.25743 15.9731C3.23164 15.9538 3.21232 15.928 3.19943 15.8957C3.18654 15.8635 3.18011 15.8345 3.18011 15.8086V15.77C3.21879 15.5184 3.51197 14.4703 4.05972 12.6256C2.81602 12.0065 1.82848 11.1857 1.09709 10.1634C0.365696 9.14111 0 8.03011 0 6.83043C0 5.59204 0.386639 4.44879 1.15992 3.40072C1.9332 2.35261 2.98518 1.52379 4.31586 0.914272C5.64654 0.304757 7.09482 0 8.66072 0Z" fill="#252525"/>
</svg>
